<?xml version="1.0" standalone="no"?>
<!DOCTYPE svg PUBLIC "-//W3C//DTD SVG 20010904//EN" "http://www.w3.org/TR/2001/REC-SVG-20010904/DTD/svg10.dtd">
<svg version="1.0" xmlns="http://www.w3.org/2000/svg" width="12.000000pt" height="12.000000pt"
  viewBox="0 0 1280.000000 832.000000" preserveAspectRatio="xMidYMid meet">
  <metadata>
    Created by potrace 1.15, written by Peter Selinger 2001-2017
  </metadata>
  <g transform="translate(0.000000,832.000000) scale(0.100000,-0.100000)" fill="#000000" stroke="none">
    <path d="M10805 8303 c-27 -10 -61 -26 -75 -36 -14 -9 -808 -799 -1765 -1755
-957 -955 -1930 -1926 -2162 -2157 l-423 -420 -2147 2146 c-2386 2384 -2182
2192 -2324 2192 -137 0 -87 43 -1020 -891 -668 -669 -841 -847 -860 -887 -33
-68 -33 -178 -1 -250 19 -43 486 -514 3100 -3127 2778 -2777 3082 -3077 3127
-3094 32 -12 76 -19 120 -19 142 1 -153 -282 3279 3146 2627 2625 3100 3102
3118 3144 31 70 31 180 0 250 -19 43 -161 189 -860 888 -696 695 -845 840
-886 858 -68 30 -158 34 -221 12z" />
  </g>
</svg>