<?xml version="1.0" standalone="no"?>
<!DOCTYPE svg PUBLIC "-//W3C//DTD SVG 20010904//EN"
 "http://www.w3.org/TR/2001/REC-SVG-20010904/DTD/svg10.dtd">
<svg version="1.0" xmlns="http://www.w3.org/2000/svg"
 width="1136.000000pt" height="1280.000000pt" viewBox="0 0 1136.000000 1280.000000"
 preserveAspectRatio="xMidYMid meet">
<metadata>
Created by potrace 1.15, written by Peter Selinger 2001-2017
</metadata>
<g transform="translate(0.000000,1280.000000) scale(0.100000,-0.100000)"
fill="#4caf50" stroke="none">
<path d="M5405 12778 c4 -13 39 -139 78 -281 l72 -258 135 -57 c1172 -499
2441 -1671 3411 -3152 81 -124 154 -233 161 -242 12 -16 32 -5 223 113 116 71
211 134 213 139 6 16 -238 387 -435 663 -612 855 -1331 1607 -2058 2153 -553
415 -1091 709 -1632 890 -90 30 -165 54 -168 54 -3 0 -3 -10 0 -22z"/>
<path d="M5620 11985 c0 -15 173 -631 178 -636 4 -3 70 -48 147 -99 921 -608
1851 -1596 2584 -2745 46 -71 85 -132 87 -134 2 -3 394 234 422 254 7 6 -241
384 -397 605 -787 1116 -1759 2050 -2689 2584 -141 81 -332 179 -332 171z"/>
<path d="M5890 10978 c1 -7 47 -181 104 -386 l102 -373 155 -143 c580 -537
1134 -1205 1593 -1921 65 -102 121 -185 124 -185 11 0 402 244 402 250 0 4
-49 85 -110 180 -616 965 -1373 1817 -2165 2436 -185 145 -205 158 -205 142z"/>
<path d="M2332 10685 c-29 -97 -70 -145 -126 -145 -81 0 -142 51 -167 140 -7
25 -16 49 -20 54 -19 22 -322 -45 -486 -108 -512 -196 -902 -557 -1148 -1061
-102 -209 -167 -394 -229 -656 -5 -25 -3 -27 35 -33 98 -16 149 -63 149 -139
0 -101 -54 -139 -170 -120 -70 11 -63 20 -79 -107 -36 -283 -40 -903 -7 -1230
46 -457 127 -885 249 -1323 l41 -148 -66 -62 c-119 -112 -184 -214 -237 -372
-53 -160 -65 -255 -65 -500 1 -486 116 -971 343 -1450 l60 -126 78 49 c43 27
167 104 276 171 108 67 197 127 197 132 0 5 -18 45 -40 89 -56 112 -180 415
-228 557 -85 249 -118 426 -109 586 5 99 32 207 47 190 4 -4 15 -28 24 -53 10
-25 44 -106 77 -181 l60 -136 57 20 c96 32 185 12 245 -57 31 -36 67 -119 67
-157 0 -54 -45 -133 -107 -188 l-55 -49 97 -184 c104 -195 145 -268 150 -268
3 0 497 305 514 316 2 2 -30 65 -72 141 -507 932 -821 1845 -942 2733 -62 460
-71 944 -24 1330 87 716 374 1247 839 1555 222 147 444 232 702 270 153 23
453 16 618 -14 505 -93 1054 -353 1634 -773 447 -325 877 -735 1283 -1224 212
-256 560 -742 698 -976 27 -46 45 -66 55 -62 29 10 330 199 330 207 0 11 -157
259 -269 422 -409 600 -796 1055 -1322 1553 l-55 53 -37 -16 c-69 -29 -125
-16 -179 42 -38 39 -58 93 -58 155 l-1 53 -112 87 c-838 649 -1712 1046 -2387
1085 l-105 6 -23 -78z"/>
<path d="M2505 10023 c-354 -17 -691 -150 -956 -376 -332 -283 -540 -728 -614
-1312 -33 -255 -35 -732 -5 -1030 55 -549 191 -1130 396 -1690 97 -267 150
-390 166 -390 7 0 12 5 12 10 -1 6 -10 64 -20 130 -25 163 -26 556 -1 695 79
455 295 732 657 842 104 32 325 36 460 8 506 -104 1114 -565 1532 -1161 41
-58 68 -88 78 -85 14 3 2188 1350 2202 1364 12 12 -237 396 -419 646 -533 730
-1119 1308 -1758 1733 -484 321 -914 512 -1328 588 -90 16 -314 32 -402 28z"/>
<path d="M6349 9235 l136 -495 126 -163 c236 -305 439 -595 629 -899 l73 -116
131 80 c72 45 160 99 196 121 36 22 66 40 68 42 5 4 -229 369 -338 527 -122
177 -338 469 -454 613 -196 244 -491 578 -638 723 l-65 63 136 -496z"/>
<path d="M9890 8256 c-113 -61 -214 -117 -225 -123 -20 -12 -20 -13 -1 -45 44
-78 270 -536 334 -678 495 -1096 783 -2159 852 -3144 13 -192 13 -637 0 -791
-12 -148 -30 -305 -36 -326 -3 -11 63 -78 201 -208 114 -106 208 -192 209
-190 7 7 46 196 66 313 118 696 83 1519 -101 2391 -150 711 -393 1437 -731
2185 -70 153 -294 608 -339 686 l-24 40 -205 -110z"/>
<path d="M9185 7879 c-110 -60 -204 -110 -208 -112 -5 -1 49 -117 120 -257
604 -1199 958 -2384 1033 -3460 6 -85 13 -186 16 -225 l5 -70 226 -210 c123
-115 228 -211 232 -213 19 -7 20 568 2 808 -73 951 -329 1936 -764 2945 -159
368 -423 899 -448 902 -8 0 -104 -48 -214 -108z"/>
<path d="M8499 7509 l-206 -111 131 -261 c409 -815 718 -1689 862 -2440 l29
-148 273 -255 273 -256 -6 64 c-91 873 -343 1790 -748 2718 -114 261 -380 800
-395 800 -4 0 -100 -50 -213 -111z"/>
<path d="M7820 7145 c-107 -57 -196 -108 -198 -113 -1 -4 56 -127 127 -273
177 -362 341 -747 456 -1072 l38 -109 311 -291 c171 -160 323 -301 338 -315
l26 -24 -37 143 c-126 478 -299 965 -521 1469 -85 195 -329 690 -339 690 -3 0
-94 -47 -201 -105z"/>
<path d="M7030 6679 c-90 -49 -168 -93 -173 -98 -6 -6 15 -57 53 -128 612
-1166 921 -2357 897 -3458 -12 -535 -95 -939 -267 -1290 -180 -367 -462 -650
-813 -815 -246 -115 -454 -160 -742 -160 -396 0 -765 99 -1235 334 -1035 516
-2008 1467 -2765 2701 -54 88 -99 162 -101 164 -2 2 -507 -262 -541 -283 -5
-3 255 -421 351 -565 130 -196 308 -440 459 -631 63 -80 114 -146 113 -147 -5
-6 -148 30 -196 49 -298 117 -618 453 -925 970 -46 79 -88 148 -92 155 -6 8
-95 -35 -288 -139 -154 -83 -282 -152 -284 -154 -6 -5 127 -210 208 -319 118
-159 214 -269 376 -430 541 -540 995 -754 1599 -755 l169 0 114 -107 c256
-242 504 -450 740 -621 l112 -82 33 62 c64 120 122 158 187 122 71 -39 94
-136 66 -278 -10 -48 -16 -88 -14 -90 16 -14 405 -229 508 -281 904 -453 1688
-523 2364 -213 52 24 66 35 62 47 -22 56 -46 167 -43 198 2 29 10 41 35 55 28
17 35 18 65 5 39 -16 86 -70 114 -128 11 -21 22 -39 26 -39 5 0 32 17 60 37
488 345 797 857 938 1554 33 166 65 411 74 569 4 58 9 135 12 172 l5 67 -46
22 c-83 39 -107 98 -59 145 21 21 32 25 66 22 l41 -4 -6 194 c-33 971 -290
2001 -750 3003 l-35 75 -57 13 c-146 33 -206 192 -103 274 14 11 7 29 -60 155
-42 78 -79 141 -82 141 -3 -1 -79 -41 -170 -90z"/>
<path d="M5569 5898 l-1145 -611 87 -176 c216 -436 334 -840 370 -1267 13
-160 7 -396 -15 -529 -74 -442 -299 -727 -662 -836 -99 -30 -308 -37 -429 -15
-237 45 -552 193 -789 373 -96 74 -96 62 4 -52 373 -427 769 -811 1075 -1040
503 -378 1021 -645 1460 -754 187 -46 263 -55 485 -56 188 0 228 3 324 23 420
90 775 338 1004 702 251 400 369 998 333 1695 -43 833 -235 1607 -614 2470
-66 151 -306 639 -328 667 -13 16 -108 -33 -1160 -594z"/>
<path d="M2214 5286 c-88 -39 -147 -133 -165 -260 -17 -127 14 -339 76 -516
15 -41 29 -83 32 -92 3 -10 10 -18 15 -18 7 0 429 255 457 277 2 2 -21 56 -52
120 -30 65 -74 165 -97 223 -80 201 -127 265 -202 276 -18 2 -47 -2 -64 -10z"/>
<path d="M2540 4284 c-129 -69 -239 -129 -243 -133 -11 -11 195 -318 274 -409
118 -136 312 -280 434 -322 168 -58 325 9 325 139 0 65 -31 123 -150 286 -56
77 -166 235 -244 352 -77 117 -145 212 -151 213 -5 0 -116 -57 -245 -126z"/>
</g>
</svg>
