<?xml version="1.0" standalone="no"?>
<!DOCTYPE svg PUBLIC "-//W3C//DTD SVG 20010904//EN"
 "http://www.w3.org/TR/2001/REC-SVG-20010904/DTD/svg10.dtd">
<svg version="1.0" xmlns="http://www.w3.org/2000/svg"
 width="1280.000000pt" height="1280.000000pt" viewBox="0 0 1280.000000 1280.000000"
 preserveAspectRatio="xMidYMid meet">
<metadata>
Created by potrace 1.15, written by Peter Selinger 2001-2017
</metadata>
<g transform="translate(0.000000,1280.000000) scale(0.100000,-0.100000)"
fill="#ff9800" stroke="none">
<path d="M6273 12785 c-130 -35 -69 22 -1593 -1501 l-1435 -1434 -1391 0
c-962 0 -1409 -3 -1449 -11 -186 -34 -342 -180 -390 -364 -13 -53 -15 -550
-15 -4550 0 -4000 2 -4497 15 -4550 47 -177 183 -313 360 -360 53 -13 700 -15
6025 -15 5325 0 5972 2 6025 15 176 46 314 184 360 360 13 53 15 550 15 4550
0 4000 -2 4497 -15 4550 -48 184 -204 330 -390 364 -40 8 -486 11 -1449 11
l-1389 0 -1431 1428 c-1542 1538 -1469 1470 -1611 1507 -72 18 -172 18 -242 0z
m1012 -2055 l880 -880 -1765 0 -1765 0 880 880 c484 484 882 880 885 880 3 0
401 -396 885 -880z m4533 -5805 l-3 -3935 -5415 0 -5415 0 -3 3935 -2 3935
5420 0 5420 0 -2 -3935z"/>
<path d="M3810 7870 c-408 -54 -749 -370 -835 -775 -23 -107 -23 -295 -1 -400
81 -371 354 -657 721 -755 102 -27 278 -37 382 -21 387 59 693 327 809 707 26
82 28 102 28 264 0 149 -3 187 -22 253 -81 291 -291 536 -560 652 -166 72
-348 98 -522 75z"/>
<path d="M7262 4680 c-606 -1216 -1104 -2210 -1107 -2210 -3 0 -281 552 -619
1227 l-614 1228 -736 -1473 c-405 -809 -736 -1474 -736 -1477 0 -3 1661 -5
3690 -5 l3690 0 -1230 2460 c-677 1353 -1231 2460 -1233 2460 -1 0 -498 -994
-1105 -2210z"/>
</g>
</svg>
