<?xml version="1.0" standalone="no"?>
<!DOCTYPE svg PUBLIC "-//W3C//DTD SVG 20010904//EN"
 "http://www.w3.org/TR/2001/REC-SVG-20010904/DTD/svg10.dtd">
<svg version="1.0" xmlns="http://www.w3.org/2000/svg"
 width="1280.000000pt" height="1254.000000pt" viewBox="0 0 1280.000000 1254.000000"
 preserveAspectRatio="xMidYMid meet">
<metadata>
Created by potrace 1.15, written by Peter Selinger 2001-2017
</metadata>
<g transform="translate(0.000000,1254.000000) scale(0.100000,-0.100000)"
fill="#ffffff" stroke="none">
<path d="M8628 12529 c-175 -21 -380 -94 -502 -178 -209 -144 -343 -348 -408
-623 -18 -78 -22 -128 -25 -315 l-3 -222 -1321 -1650 -1320 -1649 -87 40
c-582 269 -1195 384 -1657 312 -839 -131 -1243 -819 -1070 -1819 119 -681 504
-1468 1068 -2178 48 -61 66 -91 60 -100 -21 -26 -1713 -2112 -3072 -3787 -293
-361 -290 -358 -264 -340 12 8 964 733 2114 1610 1151 877 2100 1599 2109
1603 13 7 41 -11 121 -78 450 -377 988 -712 1478 -920 1428 -607 2525 -247
2661 875 13 108 13 368 0 485 -34 304 -121 630 -250 945 -28 69 -52 128 -53
132 -1 4 772 626 1718 1382 l1720 1376 70 0 c86 0 245 23 345 51 99 26 259
105 340 167 733 556 428 1988 -696 3268 -126 143 -439 452 -584 576 -649 554
-1334 909 -1967 1019 -136 23 -407 33 -525 18z"/>
</g>
</svg>
