<?xml version="1.0" standalone="no"?>
<!DOCTYPE svg PUBLIC "-//W3C//DTD SVG 20010904//EN"
 "http://www.w3.org/TR/2001/REC-SVG-20010904/DTD/svg10.dtd">
<svg version="1.0" xmlns="http://www.w3.org/2000/svg"
 width="1280.000000pt" height="844.000000pt" viewBox="0 0 1280.000000 844.000000"
 preserveAspectRatio="xMidYMid meet">
<metadata>
Created by potrace 1.15, written by Peter Selinger 2001-2017
</metadata>
<g transform="translate(0.000000,844.000000) scale(0.100000,-0.100000)"
fill="#4caf50" stroke="none">
<path d="M10055 8429 c-327 -32 -896 -106 -1160 -150 -191 -31 -449 -84 -905
-184 -678 -149 -975 -204 -1300 -241 -158 -17 -187 -27 -223 -76 -71 -95 -108
-214 -128 -415 -26 -250 27 -495 125 -581 45 -39 68 -46 112 -32 19 7 36 10
38 8 54 -84 94 -118 140 -118 42 0 103 37 130 78 24 35 38 81 51 164 4 27 10
36 20 31 12 -4 15 6 15 50 0 86 20 207 42 259 24 57 78 108 143 137 60 27 440
151 461 151 9 0 32 16 50 35 32 34 40 37 246 81 268 57 997 202 1228 244 258
47 805 139 808 135 2 -2 -12 -34 -31 -71 -56 -111 -154 -343 -178 -424 -18
-56 -24 -99 -24 -172 0 -80 -3 -98 -15 -98 -57 1 -162 40 -300 112 -85 45
-173 91 -194 102 -82 41 -166 21 -401 -96 -113 -57 -989 -448 -1115 -498 -165
-66 -432 -186 -621 -280 -204 -102 -225 -110 -279 -110 -92 0 -195 34 -593
198 -16 6 -12 12 28 41 59 42 74 71 52 104 -22 33 -99 67 -158 70 -38 2 -49 6
-49 19 0 36 -108 88 -185 88 -55 0 -173 -39 -344 -114 -93 -41 -231 -92 -308
-114 -201 -58 -594 -147 -805 -182 -218 -37 -282 -52 -366 -87 -78 -32 -102
-60 -102 -122 0 -25 -4 -51 -8 -58 -26 -42 -222 -89 -532 -128 -235 -30 -388
-59 -445 -84 -64 -29 -77 -51 -85 -139 -9 -108 6 -415 25 -485 36 -138 104
-207 202 -207 28 0 43 -8 77 -43 69 -71 65 -71 543 -16 230 27 478 54 552 60
161 12 190 24 191 75 0 18 24 8 203 -81 113 -57 233 -110 272 -120 39 -10 73
-21 77 -24 7 -6 91 -851 86 -857 -2 -2 -82 8 -178 22 -327 45 -472 43 -585
-11 -81 -38 -80 -37 -55 -85 29 -56 92 -116 173 -164 73 -42 92 -60 82 -75
-16 -28 -330 -99 -855 -195 -195 -36 -389 -74 -430 -86 -218 -60 -310 -81
-365 -86 l-60 -5 50 21 c59 25 194 65 517 154 456 125 625 219 616 341 -3 35
-8 42 -38 57 -24 12 -58 18 -107 18 -65 0 -71 2 -66 19 14 53 -49 91 -149 91
-172 0 -454 -74 -1038 -273 -415 -141 -523 -189 -623 -277 -56 -49 -77 -86
-77 -133 0 -53 46 -86 170 -123 38 -11 48 -19 59 -49 15 -44 18 -45 230 -98
186 -46 186 -47 4 -73 -276 -38 -542 16 -868 176 -149 74 -179 98 -287 232
-49 61 -185 150 -273 180 -38 13 -92 40 -120 61 -51 37 -128 67 -174 67 -35 0
-130 -45 -137 -65 -11 -27 10 -57 73 -110 34 -27 74 -70 91 -95 36 -53 74
-121 70 -125 -2 -1 -57 -44 -123 -95 l-120 -92 -52 -216 c-28 -120 -52 -211
-52 -204 -1 7 6 71 15 143 9 72 14 132 12 135 -3 2 -35 -107 -71 -244 -119
-440 -160 -655 -160 -842 -1 -137 11 -185 58 -236 31 -33 35 -44 35 -90 0 -29
5 -87 11 -129 7 -51 7 -80 0 -89 -24 -29 -71 -167 -71 -209 0 -37 5 -49 26
-66 15 -12 37 -21 49 -21 21 0 22 -4 29 -147 3 -82 13 -184 21 -228 8 -44 15
-81 15 -82 0 -2 -15 -3 -34 -3 -47 0 -72 -11 -136 -59 -66 -49 -104 -53 -150
-15 -17 15 -33 25 -35 23 -7 -7 23 -81 42 -101 29 -32 89 -58 135 -58 37 0 47
-5 71 -35 31 -39 73 -64 112 -67 14 -1 25 -4 25 -5 0 -2 -26 -34 -58 -72 -64
-76 -102 -145 -102 -184 0 -24 14 -15 159 106 381 318 588 426 718 376 27 -11
26 -12 -47 -38 -261 -93 -573 -369 -614 -543 -3 -16 -3 -28 1 -28 5 0 37 25
73 56 296 254 525 411 643 439 22 6 27 4 28 -11 0 -16 2 -16 11 4 9 18 19 22
55 22 76 0 119 -36 143 -120 8 -25 8 -24 24 12 44 102 -6 159 -160 183 -30 5
-44 13 -52 30 -14 31 -74 61 -137 69 -28 4 -66 9 -85 12 l-35 6 30 15 c17 9
43 27 59 42 25 23 28 24 24 6 -3 -11 -9 -28 -13 -38 -7 -16 -4 -18 26 -13 19
3 155 17 303 32 l269 25 46 -25 47 -25 104 24 c58 13 141 35 185 49 64 20 207
41 283 41 7 0 30 -42 51 -92 61 -146 114 -228 215 -328 76 -75 106 -98 181
-134 50 -23 108 -52 130 -63 22 -11 65 -33 96 -49 79 -40 187 -73 300 -94 92
-16 99 -16 133 0 39 19 76 59 76 82 0 52 -78 112 -267 206 -61 31 -114 61
-118 66 -3 6 -10 113 -15 238 -8 210 -20 421 -39 728 -6 92 -4 126 6 147 48
99 63 252 73 777 9 485 19 583 70 686 18 37 40 67 58 77 35 21 1932 496 2132
534 74 14 157 34 184 45 27 10 52 17 54 15 6 -7 -25 -60 -50 -83 -36 -34 -80
-48 -248 -82 -172 -34 -539 -131 -612 -163 -49 -21 -62 -38 -30 -38 9 0 258
38 552 85 294 46 536 82 539 80 11 -11 -87 -40 -234 -70 -176 -36 -387 -89
-537 -137 -98 -30 -139 -51 -126 -63 3 -4 248 33 545 80 296 48 555 90 576 92
28 4 36 10 33 22 -3 9 -50 196 -106 416 -130 512 -118 469 -119 420 0 -22 8
-175 19 -339 14 -219 17 -310 10 -338 -6 -21 -14 -38 -18 -38 -4 0 -15 30 -23
68 -9 37 -48 193 -87 347 -45 179 -73 312 -78 368 -3 49 -7 276 -8 505 -1 406
-2 418 -23 464 -30 66 -71 90 -143 86 l-56 -4 -27 43 c-35 57 -82 78 -157 69
-72 -8 -99 -30 -125 -99 -35 -95 -25 -92 -226 -56 -96 18 -177 35 -182 38 -4
4 -11 39 -16 78 -10 77 -24 113 -46 113 -24 0 -43 -41 -51 -107 -7 -68 -17
-76 -53 -42 -28 26 -38 53 -58 149 -8 41 -21 81 -28 89 -21 22 -53 4 -66 -37
-10 -36 -12 -37 -57 -37 -26 -1 -54 -4 -63 -8 -13 -6 -18 -2 -23 20 -16 62
-70 103 -137 103 -34 0 -88 -45 -120 -98 -12 -20 -33 -54 -46 -74 -54 -80
-192 -99 -465 -62 -44 5 -48 8 -47 32 2 64 49 136 110 167 54 28 142 45 378
70 130 14 274 35 320 45 106 26 219 83 226 116 3 13 7 35 10 49 4 17 22 36 51
55 l46 29 118 -42 c65 -23 115 -44 109 -47 -13 -9 461 -202 495 -202 16 1 41
6 56 12 22 9 43 7 108 -9 145 -37 314 -62 456 -66 131 -5 141 -6 165 -29 38
-35 105 -66 180 -82 185 -39 442 6 921 161 398 129 446 142 973 261 1431 323
2651 581 2837 601 152 15 263 13 302 -8 20 -11 12 -15 -92 -51 -158 -55 -166
-59 -95 -52 226 21 246 21 257 1 5 -10 7 -21 4 -24 -3 -3 -101 -23 -218 -44
-412 -75 -1147 -225 -2238 -455 -1309 -277 -1979 -412 -2600 -524 -157 -29
-286 -52 -286 -53 -1 -1 86 -225 192 -497 107 -272 233 -596 280 -720 47 -124
95 -241 106 -261 26 -46 53 -59 129 -59 33 0 457 56 942 125 3465 493 3673
522 3827 536 141 12 268 39 307 64 12 8 24 15 26 15 3 0 10 -44 16 -97 102
-834 217 -1264 330 -1228 11 3 31 19 45 35 l25 30 26 -58 c63 -137 135 -148
191 -28 13 28 24 59 24 69 0 34 15 16 39 -45 14 -35 26 -58 28 -51 2 6 -5 76
-16 156 -15 105 -19 170 -15 238 11 169 -20 624 -71 1034 -96 768 -206 1485
-295 1919 -34 168 -34 167 -19 146 16 -23 3 182 -17 260 -9 36 -28 90 -42 120
-14 30 -28 60 -30 65 -9 21 81 -72 104 -107 13 -20 48 -96 78 -170 30 -73 71
-167 90 -208 l35 -75 1 73 c1 194 -78 394 -203 513 -49 47 -191 129 -224 129
-8 0 -42 15 -76 34 -78 44 -195 82 -272 91 l-60 6 122 -64 c263 -141 314 -194
402 -426 l20 -54 -33 37 c-34 37 -113 78 -176 91 -19 4 -46 18 -60 31 -39 36
-102 60 -280 103 -91 22 -233 63 -315 91 -253 86 -332 104 -475 106 -90 1
-135 6 -162 18 -21 9 -60 16 -89 16 -45 0 -50 2 -44 18 4 9 37 103 75 207 37
105 84 230 104 279 52 129 63 191 43 239 -20 46 -79 76 -152 77 -46 0 -51 3
-65 32 -26 56 -68 72 -199 74 -64 1 -156 -2 -206 -7z m-2795 -913 c0 -3 -26
-12 -57 -21 -74 -22 -163 -67 -208 -106 -41 -36 -43 -33 -15 22 27 52 67 75
154 89 39 7 78 13 86 15 26 5 40 5 40 1z m4394 -723 c4 -38 9 -86 12 -108 l6
-40 -33 32 c-42 39 -77 53 -135 53 -24 0 -44 4 -44 8 0 5 -14 22 -31 40 l-31
31 29 7 c51 14 188 42 204 43 13 1 18 -13 23 -66z m-139 -183 c3 -5 -1 -10 -9
-10 -9 0 -16 5 -16 10 0 6 4 10 9 10 6 0 13 -4 16 -10z m-9864 -3614 c76 -141
106 -372 95 -746 -3 -124 -12 -285 -19 -358 l-12 -132 -37 104 c-34 93 -38
114 -38 202 0 179 -26 410 -80 713 -30 169 -25 246 18 279 25 19 33 12 73 -62z
m927 -133 c40 -102 41 -209 8 -475 -14 -106 -28 -224 -31 -263 -9 -93 9 -213
40 -275 14 -27 25 -51 25 -53 0 -6 -111 -79 -114 -75 -2 2 -46 108 -100 237
l-97 234 -15 156 c-22 215 -16 349 18 423 37 79 102 117 204 118 47 0 52 -2
62 -27z m-1766 -1903 c-6 -40 19 -75 63 -91 36 -14 47 -29 19 -29 -19 0 -165
-69 -211 -100 l-33 -22 0 24 c0 29 -17 48 -44 48 -12 0 -52 -26 -91 -57 -85
-68 -126 -87 -173 -78 l-35 7 44 25 c24 13 52 31 61 40 15 13 18 12 28 -7 12
-22 12 -22 52 16 22 22 74 80 116 129 64 77 80 90 107 91 18 1 45 9 61 18 39
21 41 20 36 -14z"/>
<path d="M7859 7486 c-2 -2 -69 -16 -149 -30 -352 -64 -527 -133 -574 -225 -8
-14 -19 -83 -25 -151 -12 -153 -3 -212 39 -255 27 -26 30 -27 30 -10 1 56 20
229 29 262 6 21 24 59 40 85 38 60 111 95 356 173 253 80 266 85 288 123 l19
32 -24 0 c-14 0 -27 -2 -29 -4z"/>
<path d="M3773 5106 c-75 -15 -98 -38 -113 -116 -28 -144 -62 -266 -91 -326
-52 -106 -110 -151 -345 -265 -185 -89 -224 -112 -212 -125 5 -4 551 169 594
188 37 17 64 79 71 160 l6 70 17 -53 c24 -79 88 -196 123 -225 34 -28 63 -27
108 5 l25 19 28 -55 c39 -73 70 -96 119 -90 48 7 74 29 101 87 20 43 21 58 18
293 -2 136 -7 259 -12 272 -17 44 -56 60 -147 60 l-82 0 -17 43 c-12 33 -25
48 -50 58 -39 16 -57 16 -141 0z"/>
<path d="M3436 5025 c-5 -16 -17 -66 -28 -109 -28 -116 -69 -198 -127 -256
-48 -48 -116 -85 -438 -237 -54 -25 -72 -49 -30 -40 48 10 534 169 566 185 64
31 76 59 79 185 4 141 -11 316 -22 272z"/>
<path d="M12621 4464 c0 -11 3 -14 6 -6 3 7 2 16 -1 19 -3 4 -6 -2 -5 -13z"/>
<path d="M11120 4440 c-25 -5 -153 -16 -285 -24 -772 -50 -1424 -141 -3052
-426 -471 -83 -845 -167 -1073 -242 -201 -65 -324 -142 -300 -188 14 -26 86
-52 162 -58 61 -4 66 -6 55 -23 -9 -14 -7 -22 6 -37 42 -46 173 -56 386 -28
63 9 116 14 118 13 1 -2 -84 -23 -190 -46 -105 -24 -419 -94 -697 -158 -1292
-293 -1987 -429 -2580 -503 -47 -6 -96 -13 -110 -16 l-25 -4 3 -902 c3 -833 4
-904 20 -921 77 -85 430 -120 1019 -99 923 31 1994 55 2128 47 138 -9 139 -9
70 -16 -192 -21 -515 -39 -1230 -69 -913 -38 -1109 -61 -1585 -186 -191 -51
-254 -77 -293 -123 -37 -44 -42 -82 -19 -134 26 -59 90 -92 163 -85 27 3 49 2
49 -2 0 -14 55 -62 92 -81 48 -25 95 -24 137 2 146 89 436 159 776 188 171 15
968 55 1610 81 149 6 396 19 550 30 154 10 341 22 415 25 256 12 434 40 502
78 69 38 105 114 184 385 60 212 87 278 139 352 49 69 53 71 30 17 -23 -56
-37 -129 -30 -165 l6 -34 37 61 c56 92 164 223 245 296 166 150 329 254 717
455 140 73 296 155 345 183 115 65 259 157 253 162 -7 8 -189 -42 -313 -86
-123 -43 -304 -118 -410 -171 -117 -58 -38 -8 159 101 266 147 307 162 1151
407 1069 312 1465 442 1607 530 45 29 51 39 44 69 -8 33 -60 62 -137 76 -60
11 -67 15 -86 50 l-21 38 38 6 c53 9 99 40 115 80 14 31 9 73 -57 537 -39 277
-73 505 -75 507 -1 2 -88 -13 -193 -34 -156 -31 -195 -36 -216 -26 -14 6 -45
11 -69 11 -37 0 -47 5 -65 30 -47 66 -120 89 -220 70z m-231 -1294 c-2 -2 -87
-20 -189 -41 -254 -50 -597 -135 -765 -189 -76 -25 -141 -44 -142 -42 -4 4
202 92 272 116 154 53 327 91 600 130 194 29 231 33 224 26z m-2009 -680 c0
-2 -30 -21 -67 -42 -100 -55 -286 -174 -399 -254 -95 -68 -97 -68 -44 -20 71
65 222 166 380 252 129 70 130 71 130 64z m-1376 -1346 c-46 -121 -80 -195
-100 -211 -13 -10 -131 -37 -173 -38 -7 -1 8 17 35 38 54 45 123 122 208 234
32 43 60 76 62 74 2 -2 -13 -46 -32 -97z"/>
<path d="M12631 4394 c-2 -56 19 -444 34 -614 23 -267 66 -462 116 -536 l20
-29 -5 30 c-3 17 -39 278 -80 580 -85 629 -83 612 -85 569z"/>
<path d="M171 3153 c-71 -252 -123 -469 -147 -621 -21 -131 -24 -349 -6 -413
13 -45 55 -109 65 -99 3 3 33 253 67 555 33 303 67 604 75 669 8 66 13 121 12
123 -2 2 -32 -95 -66 -214z"/>
<path d="M11465 2754 c-206 -43 -379 -94 -555 -164 -123 -50 -260 -114 -285
-134 -20 -16 -19 -16 5 -11 14 3 144 28 290 56 582 111 810 172 793 214 -11
31 -59 45 -145 44 -46 -1 -92 -3 -103 -5z"/>
<path d="M11629 2635 c-132 -28 -379 -105 -554 -175 -128 -50 -258 -111 -251
-117 5 -6 404 63 626 107 397 80 547 145 450 195 -41 21 -135 18 -271 -10z"/>
<path d="M9954 2115 c-436 -116 -917 -370 -1190 -628 -168 -159 -260 -311
-279 -462 l-7 -50 37 60 c108 174 266 333 475 477 120 83 218 140 450 263 447
237 667 365 625 364 -11 0 -61 -11 -111 -24z"/>
<path d="M9464 1611 c-89 -42 -155 -77 -148 -79 15 -4 228 95 294 136 62 38
19 22 -146 -57z"/>
<path d="M2204 285 c-21 -63 -35 -118 -31 -121 3 -3 53 -9 111 -13 57 -3 107
-9 110 -12 3 -3 1 -22 -5 -43 -6 -21 -9 -39 -7 -41 2 -2 161 -13 353 -24 193
-12 382 -23 420 -26 56 -5 66 -3 51 6 -11 7 -117 17 -255 26 -236 14 -322 28
-392 64 -49 24 -58 40 -22 34 15 -2 118 -9 228 -15 110 -6 211 -13 223 -16 14
-3 21 -1 18 5 -9 15 -127 29 -290 36 -219 9 -233 11 -245 48 -6 16 -11 48 -12
71 l-1 41 -19 -63 c-22 -70 -23 -70 -101 -31 -62 32 -106 110 -92 166 4 13 4
23 1 23 -3 0 -23 -52 -43 -115z"/>
<path d="M6485 353 c-55 -1 -192 -7 -305 -13 -187 -10 -358 -23 -1095 -80
-137 -11 -263 -21 -280 -21 -38 -2 -40 -1 210 -45 116 -20 211 -37 213 -39 2
-2 -41 -6 -95 -9 -54 -4 -109 -8 -123 -9 -26 -2 138 -36 330 -68 95 -16 167
-19 410 -19 865 1 1410 55 1410 139 0 32 -40 51 -132 63 -75 10 -85 13 -80 30
2 10 -1 24 -7 32 -23 28 -218 44 -456 39z"/>
</g>
</svg>
